<svg viewBox="0 0 200 200" width="400" height="400" xmlns="http://www.w3.org/2000/svg">
  <path fill="#0B2C7B2B" d="M29,-44.3C36.8,-40,41.8,-30.7,52.5,-20.2C63.3,-9.7,79.6,2.1,81.8,14.3C84,26.5,72,39.3,59.6,49C47.1,58.8,34.2,65.6,20,71.1C5.8,76.7,-9.6,81,-18.5,73.6C-27.4,66.2,-29.9,47.1,-37.5,34.5C-45.2,22,-58.1,16.1,-63.9,6.3C-69.7,-3.4,-68.5,-17.1,-60.7,-25.1C-52.9,-33.1,-38.6,-35.4,-27.4,-38.2C-16.2,-40.9,-8.1,-44,1.2,-45.9C10.6,-47.9,21.1,-48.6,29,-44.3Z" transform="translate(100 100)" />
</svg>
